<svg version="1.0" xmlns="http://www.w3.org/2000/svg" width="464" height="464" viewBox="0 0 348 348"><path d="M4 174.5V344h339V5H4v169.5zm337 0V342H6V7h335v167.5z"/><path d="M38.5 24.3c-.3.7-.4 13.6-.3 28.7l.3 27.5h129v-57l-64.3-.3c-51.2-.2-64.4 0-64.7 1.1zM164 52v25H42V27h122v25z"/><path d="M83.5 31.2c-.3.8-.4 10.1-.3 20.8l.3 19.5h26v-41l-12.8-.3c-9.8-.2-12.9 0-13.2 1zm22.5 9.3V47H87V34h19v6.5zm0 20V68H87V53h19v7.5zM294.5 25c-4.6 1-7.9 3.5-10.3 7.9-5.6 9.8.4 21.5 11.9 23.6 7.2 1.3 16.8-5.3 18.4-12.6 2.5-11.1-8.5-21.5-20-18.9zm11.4 3.9c9.5 6.7 9 18.7-1 23.9-9.7 5.1-20.9-1.4-20.9-12.1 0-6.7 3.1-10.9 9.7-13.2 4.4-1.5 8.8-1 12.2 1.4zM39.5 99.3c-.3.7-.4 14-.3 29.7l.3 28.5h127v-59l-63.3-.3c-50.4-.2-63.4 0-63.7 1.1zM163 128v26H43v-52h120v26z"/><path d="M88.5 107.2c-.3.8-.4 10.1-.3 20.8l.3 19.5h24v-41l-11.8-.3c-9-.2-11.9 0-12.2 1zM109 118v8H92v-16h17v8zm0 19v7H92v-14h17v7zM176.5 180.6c-21.7 3.3-40.8 12.4-53.6 25.5-41.2 42-18.2 103.6 44.2 118.6 10.2 2.4 32.6 2.4 42.8 0 33.2-8 57.7-30.4 63.6-58.3 7.9-37.3-19.3-73.5-63-83.9-6.8-1.6-28-2.8-34-1.9zm35.5 6.3c17.2 4.4 34.2 14.9 44.5 27.4 4.9 5.9 10.5 16.8 12.6 24.2 1.8 6.4 1.8 23.6 0 30-5.3 18.9-19.2 34.9-38.6 44.5-15.1 7.4-23.8 9.4-42 9.4s-26.9-2-42-9.4c-19.4-9.6-32.2-24.1-38.3-43.4-2.2-6.9-2.2-25.3 0-32.2 8.7-27.6 33.3-47 66.3-52.5 8.5-1.4 28.1-.3 37.5 2z"/><path d="M186 224.5c0 30.8 0 31.5 2 31.5s2-.7 2-31.5 0-31.5-2-31.5-2 .7-2 31.5zM186 276c0 1.5.5 2 1.8 1.8.9-.2 1.7-1 1.7-1.8s-.8-1.6-1.7-1.8c-1.3-.2-1.8.3-1.8 1.8z"/></svg>